<svg
   viewBox="0 0 144 144"
   width="144px"
   height="144px"
   version="1.1"
   id="svg6">
  <path
     style=";fill-rule:nonzero;stroke:none;stroke-width:1.19017"
     d="M 127.33789 0 L 119.73047 15.826172 C 119.32135 16.67231 118.85655 17.500115 118.37305 18.318359 C 105.88088 7.5928531 89.669772 1.0683594 71.910156 1.0683594 C 32.471722 1.0683594 0.5 33.042035 0.5 72.480469 C 0.5 111.9189 32.471722 143.89062 71.910156 143.89062 C 111.34859 143.89062 143.32031 111.9189 143.32031 72.480469 C 143.32031 72.043452 143.26516 71.614752 143.25586 71.177734 C 143.50227 55.961184 140.07659 37.872385 132.93555 16.644531 L 127.33789 0 z M 126.48242 18.921875 C 134.23715 42.725339 143.57127 79.998059 126.84375 103.03906 C 115.69053 118.39509 95.954812 119.22192 77.376953 118.89648 L 46.248047 118.89648 C 62.055035 113.21062 71.464499 111.8579 81.074219 106.75781 C 99.16857 97.241083 117.0573 76.421942 120.78125 54.761719 C 113.88661 75.599049 93.003433 93.502695 73.974609 100.7832 C 60.933844 105.75776 37.380859 110.58398 37.380859 110.58398 L 36.427734 110.06836 C 20.397589 102.00215 19.915252 66.10196 49.060547 54.511719 C 61.822366 49.434886 74.025182 52.222722 87.814453 48.824219 C 102.5289 45.211858 119.55524 33.79904 126.48242 18.921875 z M 38.009766 115.32617 C 39.227833 115.32617 40.427324 115.74899 41.371094 116.52539 C 43.653809 118.3804 44.010504 121.76927 42.160156 124.05664 C 41.151299 125.30725 39.61371 126.03711 38.009766 126.03711 C 35.071526 126.03711 32.671875 123.61988 32.671875 120.68164 C 32.671875 117.7434 35.090122 115.32617 38.009766 115.32617 z " />
</svg>
