<?xml version="1.0" encoding="UTF-8" standalone="no"?>
<svg
   xmlns:osb="http://www.openswatchbook.org/uri/2009/osb"
   xmlns:dc="http://purl.org/dc/elements/1.1/"
   xmlns:cc="http://creativecommons.org/ns#"
   xmlns:rdf="http://www.w3.org/1999/02/22-rdf-syntax-ns#"
   xmlns:svg="http://www.w3.org/2000/svg"
   xmlns="http://www.w3.org/2000/svg"
   xmlns:sodipodi="http://sodipodi.sourceforge.net/DTD/sodipodi-0.dtd"
   xmlns:inkscape="http://www.inkscape.org/namespaces/inkscape"
   version="1.1"
   id="svg22"
   width="2500"
   height="1000"
   viewBox="0 0 2500 1000"
   sodipodi:docname="nav_back_mesh4.svg"
   inkscape:version="1.0.1 (3bc2e813f5, 2020-09-07)">
  <metadata
     id="metadata28">
    <rdf:RDF>
      <cc:Work
         rdf:about="">
        <dc:format>image/svg+xml</dc:format>
        <dc:type
           rdf:resource="http://purl.org/dc/dcmitype/StillImage" />
        <dc:title></dc:title>
      </cc:Work>
    </rdf:RDF>
  </metadata>
  <defs
     id="defs26">
    <linearGradient
       id="linearGradient1889"
       osb:paint="solid">
      <stop
         style="stop-color:#000000;stop-opacity:1;"
         offset="0"
         id="stop1887" />
    </linearGradient>
    <pattern
       patternUnits="userSpaceOnUse"
       width="20"
       height="12"
       id="pattern909">
      <path
         id="rect53"
         style="fill:#f9f9f9"
         d="M 0,0 V 6 H 10 V 0 Z M 2,0.5 H 8 C 8.831,0.5 9.5,1.169 9.5,2 V 4 C 9.5,4.831 8.831,5.5 8,5.5 H 2 C 1.169,5.5 0.5,4.831 0.5,4 V 2 C 0.5,1.169 1.169,0.5 2,0.5 Z"
         inkscape:export-xdpi="122.18182"
         inkscape:export-ydpi="122.18182" />
      <path
         id="rect53-7"
         style="display:inline;fill:#f9f9f9"
         d="M 10,0 V 6 H 20 V 0 Z m 2,0.5 h 6 c 0.831,0 1.5,0.669 1.5,1.5 v 2 c 0,0.831 -0.669,1.5 -1.5,1.5 H 12 C 11.169,5.5 10.5,4.831 10.5,4 V 2 c 0,-0.831 0.669,-1.5 1.5,-1.5 z"
         inkscape:export-xdpi="122.18182"
         inkscape:export-ydpi="122.18182" />
      <path
         id="rect53-2"
         style="display:inline;fill:#f9f9f9"
         d="m 0,6 v 6 H 10 V 6 Z m 2,0.5 h 6 c 0.831,0 1.5,0.669 1.5,1.5 v 2 c 0,0.831 -0.669,1.5 -1.5,1.5 H 2 C 1.169,11.5 0.5,10.831 0.5,10 V 8 C 0.5,7.169 1.169,6.5 2,6.5 Z"
         inkscape:export-xdpi="122.18182"
         inkscape:export-ydpi="122.18182" />
      <path
         id="rect53-7-9"
         style="display:inline;fill:#f9f9f9"
         d="m 10,6 v 6 H 20 V 6 Z m 2,0.5 h 6 c 0.831,0 1.5,0.669 1.5,1.5 v 2 c 0,0.831 -0.669,1.5 -1.5,1.5 h -6 c -0.831,0 -1.5,-0.669 -1.5,-1.5 V 8 c 0,-0.831 0.669,-1.5 1.5,-1.5 z"
         inkscape:export-xdpi="122.18182"
         inkscape:export-ydpi="122.18182" />
    </pattern>
  </defs>
  <sodipodi:namedview
     pagecolor="#ffffff"
     bordercolor="#666666"
     borderopacity="1"
     objecttolerance="10"
     gridtolerance="10"
     guidetolerance="10"
     inkscape:pageopacity="0"
     inkscape:pageshadow="2"
     inkscape:window-width="1920"
     inkscape:window-height="1001"
     id="namedview24"
     showgrid="false"
     inkscape:snap-intersection-paths="true"
     inkscape:object-paths="false"
     inkscape:snap-smooth-nodes="true"
     inkscape:snap-midpoints="true"
     inkscape:zoom="0.52383562"
     inkscape:cx="25.849836"
     inkscape:cy="644.08401"
     inkscape:window-x="-9"
     inkscape:window-y="-9"
     inkscape:window-maximized="1"
     inkscape:current-layer="layer2"
     inkscape:document-rotation="0" />
  <g
     inkscape:groupmode="layer"
     id="layer2"
     inkscape:label="dziury 1"
     style="display:inline">
    <path
       id="use93406"
       style="fill:#f9f9f9"
       d="m 50.985,326.2 v 7 h 11 v -7 z m 2.5,1 h 6 c 0.831,0 1.5,0.669 1.5,1.5 v 2 c 0,0.831 -0.669,1.5 -1.5,1.5 h -6 c -0.831,0 -1.5,-0.669 -1.5,-1.5 v -2 c 0,-0.831 0.669,-1.5 1.5,-1.5 z"
       inkscape:tile-x0="0"
       inkscape:tile-y0="0" />
    <path
       id="use93508"
       style="fill:#f9f9f9"
       d="m 61.182,326.2 v 7 h 11 v -7 z m 2.5,1 h 6 c 0.831,0 1.5,0.669 1.5,1.5 v 2 c 0,0.831 -0.669,1.5 -1.5,1.5 h -6 c -0.831,0 -1.5,-0.669 -1.5,-1.5 v -2 c 0,-0.831 0.669,-1.5 1.5,-1.5 z"
       inkscape:tile-x0="0"
       inkscape:tile-y0="0" />
    <path
       id="use93610"
       style="fill:#f9f9f9"
       d="m 71.379,326.2 v 7 h 11 v -7 z m 2.5,1 h 6 c 0.831,0 1.5,0.669 1.5,1.5 v 2 c 0,0.831 -0.669,1.5 -1.5,1.5 h -6 c -0.831,0 -1.5,-0.669 -1.5,-1.5 v -2 c 0,-0.831 0.669,-1.5 1.5,-1.5 z"
       inkscape:tile-x0="0"
       inkscape:tile-y0="0" />
    <path
       id="use93712"
       style="fill:#f9f9f9"
       d="m 81.576,326.2 v 7 h 11 v -7 z m 2.5,1 h 6 c 0.831,0 1.5,0.669 1.5,1.5 v 2 c 0,0.831 -0.669,1.5 -1.5,1.5 h -6 c -0.831,0 -1.5,-0.669 -1.5,-1.5 v -2 c 0,-0.831 0.669,-1.5 1.5,-1.5 z"
       inkscape:tile-x0="0"
       inkscape:tile-y0="0" />
    <path
       id="use93814"
       style="fill:#f9f9f9"
       d="m 91.773,326.2 v 7 h 11 v -7 z m 2.5,1 h 6 c 0.831,0 1.5,0.669 1.5,1.5 v 2 c 0,0.831 -0.669,1.5 -1.5,1.5 h -6 c -0.831,0 -1.5,-0.669 -1.5,-1.5 v -2 c 0,-0.831 0.669,-1.5 1.5,-1.5 z"
       inkscape:tile-x0="0"
       inkscape:tile-y0="0" />
    <path
       id="use93916"
       style="fill:#f9f9f9"
       d="m 101.97,326.2 v 7 h 11 v -7 z m 2.5,1 h 6 c 0.831,0 1.5,0.669 1.5,1.5 v 2 c 0,0.831 -0.669,1.5 -1.5,1.5 h -6 c -0.831,0 -1.5,-0.669 -1.5,-1.5 v -2 c 0,-0.831 0.669,-1.5 1.5,-1.5 z"
       inkscape:tile-x0="0"
       inkscape:tile-y0="0" />
    <path
       id="use94018"
       style="fill:#f9f9f9"
       d="m 112.167,326.2 v 7 h 11 v -7 z m 2.5,1 h 6 c 0.831,0 1.5,0.669 1.5,1.5 v 2 c 0,0.831 -0.669,1.5 -1.5,1.5 h -6 c -0.831,0 -1.5,-0.669 -1.5,-1.5 v -2 c 0,-0.831 0.669,-1.5 1.5,-1.5 z"
       inkscape:tile-x0="0"
       inkscape:tile-y0="0" />
    <path
       id="use94120"
       style="fill:#f9f9f9"
       d="m 122.364,326.2 v 7 h 11 v -7 z m 2.5,1 h 6 c 0.831,0 1.5,0.669 1.5,1.5 v 2 c 0,0.831 -0.669,1.5 -1.5,1.5 h -6 c -0.831,0 -1.5,-0.669 -1.5,-1.5 v -2 c 0,-0.831 0.669,-1.5 1.5,-1.5 z"
       inkscape:tile-x0="0"
       inkscape:tile-y0="0" />
    <path
       id="use94222"
       style="fill:#f9f9f9"
       d="m 132.561,326.2 v 7 h 11 v -7 z m 2.5,1 h 6 c 0.831,0 1.5,0.669 1.5,1.5 v 2 c 0,0.831 -0.669,1.5 -1.5,1.5 h -6 c -0.831,0 -1.5,-0.669 -1.5,-1.5 v -2 c 0,-0.831 0.669,-1.5 1.5,-1.5 z"
       inkscape:tile-x0="0"
       inkscape:tile-y0="0" />
    <path
       id="use94324"
       style="fill:#f9f9f9"
       d="m 142.758,326.2 v 7 h 11 v -7 z m 2.5,1 h 6 c 0.831,0 1.5,0.669 1.5,1.5 v 2 c 0,0.831 -0.669,1.5 -1.5,1.5 h -6 c -0.831,0 -1.5,-0.669 -1.5,-1.5 v -2 c 0,-0.831 0.669,-1.5 1.5,-1.5 z"
       inkscape:tile-x0="0"
       inkscape:tile-y0="0" />
    <path
       id="use94426"
       style="fill:#f9f9f9"
       d="m 152.955,326.2 v 7 h 11 v -7 z m 2.5,1 h 6 c 0.831,0 1.5,0.669 1.5,1.5 v 2 c 0,0.831 -0.669,1.5 -1.5,1.5 h -6 c -0.831,0 -1.5,-0.669 -1.5,-1.5 v -2 c 0,-0.831 0.669,-1.5 1.5,-1.5 z"
       inkscape:tile-x0="0"
       inkscape:tile-y0="0" />
    <path
       id="use94528"
       style="fill:#f9f9f9"
       d="m 163.152,326.2 v 7 h 11 v -7 z m 2.5,1 h 6 c 0.831,0 1.5,0.669 1.5,1.5 v 2 c 0,0.831 -0.669,1.5 -1.5,1.5 h -6 c -0.831,0 -1.5,-0.669 -1.5,-1.5 v -2 c 0,-0.831 0.669,-1.5 1.5,-1.5 z"
       inkscape:tile-x0="0"
       inkscape:tile-y0="0" />
    <path
       id="use94630"
       style="fill:#f9f9f9"
       d="m 173.349,326.2 v 7 h 11 v -7 z m 2.5,1 h 6 c 0.831,0 1.5,0.669 1.5,1.5 v 2 c 0,0.831 -0.669,1.5 -1.5,1.5 h -6 c -0.831,0 -1.5,-0.669 -1.5,-1.5 v -2 c 0,-0.831 0.669,-1.5 1.5,-1.5 z"
       inkscape:tile-x0="0"
       inkscape:tile-y0="0" />
    <path
       id="use94732"
       style="fill:#f9f9f9"
       d="m 183.546,326.2 v 7 h 11 v -7 z m 2.5,1 h 6 c 0.831,0 1.5,0.669 1.5,1.5 v 2 c 0,0.831 -0.669,1.5 -1.5,1.5 h -6 c -0.831,0 -1.5,-0.669 -1.5,-1.5 v -2 c 0,-0.831 0.669,-1.5 1.5,-1.5 z"
       inkscape:tile-x0="0"
       inkscape:tile-y0="0" />
    <path
       id="use94834"
       style="fill:#f9f9f9"
       d="m 193.743,326.2 v 7 h 11 v -7 z m 2.5,1 h 6 c 0.831,0 1.5,0.669 1.5,1.5 v 2 c 0,0.831 -0.669,1.5 -1.5,1.5 h -6 c -0.831,0 -1.5,-0.669 -1.5,-1.5 v -2 c 0,-0.831 0.669,-1.5 1.5,-1.5 z"
       inkscape:tile-x0="0"
       inkscape:tile-y0="0" />
    <path
       id="use94936"
       style="fill:#f9f9f9"
       d="m 203.94,326.2 v 7 h 11 v -7 z m 2.5,1 h 6 c 0.831,0 1.5,0.669 1.5,1.5 v 2 c 0,0.831 -0.669,1.5 -1.5,1.5 h -6 c -0.831,0 -1.5,-0.669 -1.5,-1.5 v -2 c 0,-0.831 0.669,-1.5 1.5,-1.5 z"
       inkscape:tile-x0="0"
       inkscape:tile-y0="0" />
    <path
       id="use95038"
       style="fill:#f9f9f9"
       d="m 214.137,326.2 v 7 h 11 v -7 z m 2.5,1 h 6 c 0.831,0 1.5,0.669 1.5,1.5 v 2 c 0,0.831 -0.669,1.5 -1.5,1.5 h -6 c -0.831,0 -1.5,-0.669 -1.5,-1.5 v -2 c 0,-0.831 0.669,-1.5 1.5,-1.5 z"
       inkscape:tile-x0="0"
       inkscape:tile-y0="0" />
    <path
       id="use95140"
       style="fill:#f9f9f9"
       d="m 224.334,326.2 v 7 h 11 v -7 z m 2.5,1 h 6 c 0.831,0 1.5,0.669 1.5,1.5 v 2 c 0,0.831 -0.669,1.5 -1.5,1.5 h -6 c -0.831,0 -1.5,-0.669 -1.5,-1.5 v -2 c 0,-0.831 0.669,-1.5 1.5,-1.5 z"
       inkscape:tile-x0="0"
       inkscape:tile-y0="0" />
    <path
       id="use95242"
       style="fill:#f9f9f9"
       d="m 234.531,326.2 v 7 h 11 v -7 z m 2.5,1 h 6 c 0.831,0 1.5,0.669 1.5,1.5 v 2 c 0,0.831 -0.669,1.5 -1.5,1.5 h -6 c -0.831,0 -1.5,-0.669 -1.5,-1.5 v -2 c 0,-0.831 0.669,-1.5 1.5,-1.5 z"
       inkscape:tile-x0="0"
       inkscape:tile-y0="0" />
    <path
       id="use95344"
       style="fill:#f9f9f9"
       d="m 244.728,326.2 v 7 h 11 v -7 z m 2.5,1 h 6 c 0.831,0 1.5,0.669 1.5,1.5 v 2 c 0,0.831 -0.669,1.5 -1.5,1.5 h -6 c -0.831,0 -1.5,-0.669 -1.5,-1.5 v -2 c 0,-0.831 0.669,-1.5 1.5,-1.5 z"
       inkscape:tile-x0="0"
       inkscape:tile-y0="0" />
    <path
       id="use95446"
       style="fill:#f9f9f9"
       d="m 254.925,326.2 v 7 h 11 v -7 z m 2.5,1 h 6 c 0.831,0 1.5,0.669 1.5,1.5 v 2 c 0,0.831 -0.669,1.5 -1.5,1.5 h -6 c -0.831,0 -1.5,-0.669 -1.5,-1.5 v -2 c 0,-0.831 0.669,-1.5 1.5,-1.5 z"
       inkscape:tile-x0="0"
       inkscape:tile-y0="0" />
    <path
       id="use95548"
       style="fill:#f9f9f9"
       d="m 265.122,326.2 v 7 h 11 v -7 z m 2.5,1 h 6 c 0.831,0 1.5,0.669 1.5,1.5 v 2 c 0,0.831 -0.669,1.5 -1.5,1.5 h -6 c -0.831,0 -1.5,-0.669 -1.5,-1.5 v -2 c 0,-0.831 0.669,-1.5 1.5,-1.5 z"
       inkscape:tile-x0="0"
       inkscape:tile-y0="0" />
    <path
       id="use95650"
       style="fill:#f9f9f9"
       d="m 275.319,326.2 v 7 h 11 v -7 z m 2.5,1 h 6 c 0.831,0 1.5,0.669 1.5,1.5 v 2 c 0,0.831 -0.669,1.5 -1.5,1.5 h -6 c -0.831,0 -1.5,-0.669 -1.5,-1.5 v -2 c 0,-0.831 0.669,-1.5 1.5,-1.5 z"
       inkscape:tile-x0="0"
       inkscape:tile-y0="0" />
    <path
       id="use95752"
       style="fill:#f9f9f9"
       d="m 285.516,326.2 v 7 h 11 v -7 z m 2.5,1 h 6 c 0.831,0 1.5,0.669 1.5,1.5 v 2 c 0,0.831 -0.669,1.5 -1.5,1.5 h -6 c -0.831,0 -1.5,-0.669 -1.5,-1.5 v -2 c 0,-0.831 0.669,-1.5 1.5,-1.5 z"
       inkscape:tile-x0="0"
       inkscape:tile-y0="0" />
    <path
       id="use95854"
       style="fill:#f9f9f9"
       d="m 295.713,326.2 v 7 h 11 v -7 z m 2.5,1 h 6 c 0.831,0 1.5,0.669 1.5,1.5 v 2 c 0,0.831 -0.669,1.5 -1.5,1.5 h -6 c -0.831,0 -1.5,-0.669 -1.5,-1.5 v -2 c 0,-0.831 0.669,-1.5 1.5,-1.5 z"
       inkscape:tile-x0="0"
       inkscape:tile-y0="0" />
    <path
       id="use95956"
       style="fill:#f9f9f9"
       d="m 305.91,326.2 v 7 h 11 v -7 z m 2.5,1 h 6 c 0.831,0 1.5,0.669 1.5,1.5 v 2 c 0,0.831 -0.669,1.5 -1.5,1.5 h -6 c -0.831,0 -1.5,-0.669 -1.5,-1.5 v -2 c 0,-0.831 0.669,-1.5 1.5,-1.5 z"
       inkscape:tile-x0="0"
       inkscape:tile-y0="0" />
    <path
       id="use96058"
       style="fill:#f9f9f9"
       d="m 316.107,326.2 v 7 h 11 v -7 z m 2.5,1 h 6 c 0.831,0 1.5,0.669 1.5,1.5 v 2 c 0,0.831 -0.669,1.5 -1.5,1.5 h -6 c -0.831,0 -1.5,-0.669 -1.5,-1.5 v -2 c 0,-0.831 0.669,-1.5 1.5,-1.5 z"
       inkscape:tile-x0="0"
       inkscape:tile-y0="0" />
    <path
       id="use96160"
       style="fill:#f9f9f9"
       d="m 326.304,326.2 v 7 h 11 v -7 z m 2.5,1 h 6 c 0.831,0 1.5,0.669 1.5,1.5 v 2 c 0,0.831 -0.669,1.5 -1.5,1.5 h -6 c -0.831,0 -1.5,-0.669 -1.5,-1.5 v -2 c 0,-0.831 0.669,-1.5 1.5,-1.5 z"
       inkscape:tile-x0="0"
       inkscape:tile-y0="0" />
    <path
       id="use96262"
       style="fill:#f9f9f9"
       d="m 336.501,326.2 v 7 h 11 v -7 z m 2.5,1 h 6 c 0.831,0 1.5,0.669 1.5,1.5 v 2 c 0,0.831 -0.669,1.5 -1.5,1.5 h -6 c -0.831,0 -1.5,-0.669 -1.5,-1.5 v -2 c 0,-0.831 0.669,-1.5 1.5,-1.5 z"
       inkscape:tile-x0="0"
       inkscape:tile-y0="0" />
    <path
       id="use96364"
       style="fill:#f9f9f9"
       d="m 346.698,326.2 v 7 h 11 v -7 z m 2.5,1 h 6 c 0.831,0 1.5,0.669 1.5,1.5 v 2 c 0,0.831 -0.669,1.5 -1.5,1.5 h -6 c -0.831,0 -1.5,-0.669 -1.5,-1.5 v -2 c 0,-0.831 0.669,-1.5 1.5,-1.5 z"
       inkscape:tile-x0="0"
       inkscape:tile-y0="0" />
    <path
       id="use96466"
       style="fill:#f9f9f9"
       d="m 356.895,326.2 v 7 h 11 v -7 z m 2.5,1 h 6 c 0.831,0 1.5,0.669 1.5,1.5 v 2 c 0,0.831 -0.669,1.5 -1.5,1.5 h -6 c -0.831,0 -1.5,-0.669 -1.5,-1.5 v -2 c 0,-0.831 0.669,-1.5 1.5,-1.5 z"
       inkscape:tile-x0="0"
       inkscape:tile-y0="0" />
    <path
       id="use96568"
       style="fill:#f9f9f9"
       d="m 367.092,326.2 v 7 h 11 v -7 z m 2.5,1 h 6 c 0.831,0 1.5,0.669 1.5,1.5 v 2 c 0,0.831 -0.669,1.5 -1.5,1.5 h -6 c -0.831,0 -1.5,-0.669 -1.5,-1.5 v -2 c 0,-0.831 0.669,-1.5 1.5,-1.5 z"
       inkscape:tile-x0="0"
       inkscape:tile-y0="0" />
    <path
       id="use96670"
       style="fill:#f9f9f9"
       d="m 377.289,326.2 v 7 h 11 v -7 z m 2.5,1 h 6 c 0.831,0 1.5,0.669 1.5,1.5 v 2 c 0,0.831 -0.669,1.5 -1.5,1.5 h -6 c -0.831,0 -1.5,-0.669 -1.5,-1.5 v -2 c 0,-0.831 0.669,-1.5 1.5,-1.5 z"
       inkscape:tile-x0="0"
       inkscape:tile-y0="0" />
    <path
       id="use96772"
       style="fill:#f9f9f9"
       d="m 387.486,326.2 v 7 h 11 v -7 z m 2.5,1 h 6 c 0.831,0 1.5,0.669 1.5,1.5 v 2 c 0,0.831 -0.669,1.5 -1.5,1.5 h -6 c -0.831,0 -1.5,-0.669 -1.5,-1.5 v -2 c 0,-0.831 0.669,-1.5 1.5,-1.5 z"
       inkscape:tile-x0="0"
       inkscape:tile-y0="0" />
    <path
       id="use96874"
       style="fill:#f9f9f9"
       d="m 397.683,326.2 v 7 h 11 v -7 z m 2.5,1 h 6 c 0.831,0 1.5,0.669 1.5,1.5 v 2 c 0,0.831 -0.669,1.5 -1.5,1.5 h -6 c -0.831,0 -1.5,-0.669 -1.5,-1.5 v -2 c 0,-0.831 0.669,-1.5 1.5,-1.5 z"
       inkscape:tile-x0="0"
       inkscape:tile-y0="0" />
    <path
       id="use96976"
       style="fill:#f9f9f9"
       d="m 407.88,326.2 v 7 h 11 v -7 z m 2.5,1 h 6 c 0.831,0 1.5,0.669 1.5,1.5 v 2 c 0,0.831 -0.669,1.5 -1.5,1.5 h -6 c -0.831,0 -1.5,-0.669 -1.5,-1.5 v -2 c 0,-0.831 0.669,-1.5 1.5,-1.5 z"
       inkscape:tile-x0="0"
       inkscape:tile-y0="0" />
    <path
       id="use97078"
       style="fill:#f9f9f9"
       d="m 418.077,326.2 v 7 h 11 v -7 z m 2.5,1 h 6 c 0.831,0 1.5,0.669 1.5,1.5 v 2 c 0,0.831 -0.669,1.5 -1.5,1.5 h -6 c -0.831,0 -1.5,-0.669 -1.5,-1.5 v -2 c 0,-0.831 0.669,-1.5 1.5,-1.5 z"
       inkscape:tile-x0="0"
       inkscape:tile-y0="0" />
    <path
       id="use97180"
       style="fill:#f9f9f9"
       d="m 428.274,326.2 v 7 h 11 v -7 z m 2.5,1 h 6 c 0.831,0 1.5,0.669 1.5,1.5 v 2 c 0,0.831 -0.669,1.5 -1.5,1.5 h -6 c -0.831,0 -1.5,-0.669 -1.5,-1.5 v -2 c 0,-0.831 0.669,-1.5 1.5,-1.5 z"
       inkscape:tile-x0="0"
       inkscape:tile-y0="0" />
    <path
       id="use97282"
       style="fill:#f9f9f9"
       d="m 438.471,326.2 v 7 h 11 v -7 z m 2.5,1 h 6 c 0.831,0 1.5,0.669 1.5,1.5 v 2 c 0,0.831 -0.669,1.5 -1.5,1.5 h -6 c -0.831,0 -1.5,-0.669 -1.5,-1.5 v -2 c 0,-0.831 0.669,-1.5 1.5,-1.5 z"
       inkscape:tile-x0="0"
       inkscape:tile-y0="0" />
    <path
       id="use97384"
       style="fill:#f9f9f9"
       d="m 448.668,326.2 v 7 h 11 v -7 z m 2.5,1 h 6 c 0.831,0 1.5,0.669 1.5,1.5 v 2 c 0,0.831 -0.669,1.5 -1.5,1.5 h -6 c -0.831,0 -1.5,-0.669 -1.5,-1.5 v -2 c 0,-0.831 0.669,-1.5 1.5,-1.5 z"
       inkscape:tile-x0="0"
       inkscape:tile-y0="0" />
    <path
       id="use97486"
       style="fill:#f9f9f9"
       d="m 458.865,326.2 v 7 h 11 v -7 z m 2.5,1 h 6 c 0.831,0 1.5,0.669 1.5,1.5 v 2 c 0,0.831 -0.669,1.5 -1.5,1.5 h -6 c -0.831,0 -1.5,-0.669 -1.5,-1.5 v -2 c 0,-0.831 0.669,-1.5 1.5,-1.5 z"
       inkscape:tile-x0="0"
       inkscape:tile-y0="0" />
    <path
       id="use97588"
       style="fill:#f9f9f9"
       d="m 469.062,326.2 v 7 h 11 v -7 z m 2.5,1 h 6 c 0.831,0 1.5,0.669 1.5,1.5 v 2 c 0,0.831 -0.669,1.5 -1.5,1.5 h -6 c -0.831,0 -1.5,-0.669 -1.5,-1.5 v -2 c 0,-0.831 0.669,-1.5 1.5,-1.5 z"
       inkscape:tile-x0="0"
       inkscape:tile-y0="0" />
    <path
       id="use97690"
       style="fill:#f9f9f9"
       d="m 479.259,326.2 v 7 h 11 v -7 z m 2.5,1 h 6 c 0.831,0 1.5,0.669 1.5,1.5 v 2 c 0,0.831 -0.669,1.5 -1.5,1.5 h -6 c -0.831,0 -1.5,-0.669 -1.5,-1.5 v -2 c 0,-0.831 0.669,-1.5 1.5,-1.5 z"
       inkscape:tile-x0="0"
       inkscape:tile-y0="0" />
    <path
       id="use97792"
       style="fill:#f9f9f9"
       d="m 489.456,326.2 v 7 h 11 v -7 z m 2.5,1 h 6 c 0.831,0 1.5,0.669 1.5,1.5 v 2 c 0,0.831 -0.669,1.5 -1.5,1.5 h -6 c -0.831,0 -1.5,-0.669 -1.5,-1.5 v -2 c 0,-0.831 0.669,-1.5 1.5,-1.5 z"
       inkscape:tile-x0="0"
       inkscape:tile-y0="0" />
    <rect
       style="fill:url(#pattern909);stroke-width:0;fill-opacity:1.0"
       id="rect1879"
       width="2500"
       height="1000"
       x="0"
       y="0" />
  </g>
</svg>
