<?xml version="1.0" encoding="UTF-8" standalone="no"?>
<svg
   xmlns:dc="http://purl.org/dc/elements/1.1/"
   xmlns:cc="http://creativecommons.org/ns#"
   xmlns:rdf="http://www.w3.org/1999/02/22-rdf-syntax-ns#"
   xmlns:svg="http://www.w3.org/2000/svg"
   xmlns="http://www.w3.org/2000/svg"
   xmlns:sodipodi="http://sodipodi.sourceforge.net/DTD/sodipodi-0.dtd"
   xmlns:inkscape="http://www.inkscape.org/namespaces/inkscape"
   width="1000mm"
   height="1000mm"
   viewBox="0 0 999.99995 999.99991"
   version="1.1"
   id="svg156"
   inkscape:version="1.0.1 (3bc2e813f5, 2020-09-07)"
   sodipodi:docname="logo2.svg">
  <defs
     id="defs150" />
  <sodipodi:namedview
     id="base"
     pagecolor="#ffffff"
     bordercolor="#666666"
     borderopacity="1.0"
     inkscape:pageopacity="0.0"
     inkscape:pageshadow="2"
     inkscape:zoom="0.093885198"
     inkscape:cx="1695.3476"
     inkscape:cy="1058.5339"
     inkscape:document-units="mm"
     inkscape:current-layer="layer2"
     inkscape:document-rotation="0"
     showgrid="false"
     inkscape:snap-midpoints="true"
     inkscape:snap-smooth-nodes="true"
     inkscape:snap-intersection-paths="true"
     inkscape:object-paths="true"
     inkscape:window-width="1920"
     inkscape:window-height="1001"
     inkscape:window-x="-9"
     inkscape:window-y="-9"
     inkscape:window-maximized="1"
     inkscape:object-nodes="true"
     inkscape:snap-nodes="true"
     inkscape:snap-others="false"
     width="1000mm"
     units="mm" />
  <metadata
     id="metadata153">
    <rdf:RDF>
      <cc:Work
         rdf:about="">
        <dc:format>image/svg+xml</dc:format>
        <dc:type
           rdf:resource="http://purl.org/dc/dcmitype/StillImage" />
        <dc:title />
      </cc:Work>
    </rdf:RDF>
  </metadata>
  <g
     inkscape:groupmode="layer"
     id="layer2"
     inkscape:label="background"
     style="display:none">
    <rect
       style="fill:#000000;stroke-width:0"
       id="rect847"
       width="1000"
       height="1000"
       x="0"
       y="0" />
  </g>
  <g
     inkscape:label="Layer 1"
     inkscape:groupmode="layer"
     id="layer1">
    <rect
       style="fill:#ffffff;stroke-width:0"
       id="rect845"
       width="1000"
       height="1000"
       x="0"
       y="0"
       ry="120"
       rx="120" />
    <path
       id="rect158"
       style="fill:#6bd6ff;fill-opacity:1;stroke:none;stroke-width:0;stroke-miterlimit:4;stroke-dasharray:none;stroke-opacity:1"
       d="M 139.99907,50 C 90.139123,50 50,90.139123 50,139.99907 V 423.0001 h 0.948779 v 5.41829 l 17.105914,1.45106 c 9.409176,0.79631 70.730817,4.68594 136.270617,8.64598 99.02927,5.98352 121.32665,6.72569 131.96856,4.39043 8.45665,-1.85576 11.66009,-3.43205 9.43663,-4.64158 -1.85176,-1.00734 -27.2561,-10.18069 -56.45697,-20.38479 -29.20091,-10.20412 -50.96938,-18.84124 -48.37375,-19.19414 2.59565,-0.3529 29.94057,3.97475 60.76368,9.618 30.82318,5.64325 56.03838,9.37802 56.03838,8.29714 0,-1.0807 -13.2411,-18.09402 -29.42608,-37.80694 -16.18498,-19.71293 -29.09418,-36.1762 -28.68661,-36.58378 0.40763,-0.40759 20.20954,7.75492 44.00194,18.13842 23.79238,10.38348 43.67151,18.46415 44.17864,17.95701 0.50716,-0.50713 -13.05116,-23.40395 -30.13299,-50.88054 -17.08184,-27.47662 -30.69298,-50.30973 -30.24466,-50.74105 0.44839,-0.43128 17.80461,18.20944 38.56971,41.42535 20.76508,23.21592 38.54978,42.22889 39.52314,42.24852 2.35653,0.0477 2.3868,0.38971 -3.9207,-48.34118 -3.02371,-23.36074 -5.30602,-42.71102 -5.07411,-43.00198 0.23194,-0.29097 11.82642,14.2813 25.76584,32.3794 13.93944,18.098 26.4468,33.58408 27.79364,34.41646 1.63423,1.01002 2.01122,-2.69448 1.1348,-11.13884 -0.72223,-6.9591 -1.87471,-34.95124 -2.55798,-62.20546 l -1.24177,-49.55505 15.91995,55.87094 c 8.75641,30.72933 16.60656,56.54396 17.44076,57.36389 1.31368,1.29124 5.75743,-9.3541 27.95642,-66.97724 l 3.99508,-10.38075 5.07411,22.17537 c 2.79056,12.19704 6.79084,29.87675 8.88784,39.28594 2.09695,9.40916 4.51198,17.1059 5.36709,17.1059 0.85508,0 13.70506,-24.37606 28.55638,-54.16873 14.85129,-29.79266 27.4288,-53.74289 27.9471,-53.2246 0.5183,0.5183 -5.09275,27.05079 -12.469,58.95913 -7.37617,31.9083 -13.07019,58.99428 -12.65038,60.19162 0.41984,1.19733 14.56826,-10.40072 31.43991,-25.77051 16.87163,-15.36976 30.93043,-27.71597 31.23992,-27.44015 0.30951,0.27585 -4.75619,16.34932 -11.25511,35.72337 -6.49893,19.37402 -11.52993,36.67522 -11.1807,38.44412 0.38681,1.95915 18.47717,-10.32494 46.2855,-31.43061 25.10805,-19.05622 46.02109,-34.28089 46.47152,-33.83046 0.45046,0.45047 -16.14262,20.845 -36.87211,45.32277 -20.72955,24.47777 -37.2211,44.97379 -36.6489,45.54603 0.57223,0.57221 15.03224,-1.77951 32.13288,-5.2276 17.10074,-3.44802 31.54599,-5.81449 32.10034,-5.26014 0.55431,0.55441 -4.58433,6.13724 -11.41789,12.40854 -26.87121,24.66045 -39.76067,37.08708 -39.08595,37.68139 0.38808,0.3419 25.12819,-2.93491 54.97799,-7.28329 29.84984,-4.34834 56.92851,-7.8703 60.17301,-7.82742 3.24457,0.0432 -16.60958,6.67626 -44.11819,14.74329 -27.50867,8.06699 -50.70317,15.35185 -51.54099,16.18969 -4.53844,4.53845 31.0149,3.88075 140.48895,-2.60449 66.83762,-3.95949 128.69164,-7.82164 137.45194,-8.58088 l 15.92924,-1.38131 v 70.93515 70.93049 h -9.45522 c -5.19886,0 -61.7984,-3.17227 -125.77824,-7.05073 -137.98113,-8.36452 -150.14932,-8.80133 -155.77173,-5.61827 -3.4335,1.94381 6.21253,5.47582 47.69472,17.47333 28.59893,8.2714 51.61909,15.41856 51.15496,15.88276 -0.46439,0.46413 -27.61428,-3.00297 -60.33115,-7.7065 -32.71689,-4.70352 -59.9334,-8.10425 -60.47997,-7.55768 -0.54647,0.54657 11.15421,12.02449 25.99839,25.51004 14.8442,13.48556 26.72771,24.78886 26.40767,25.11471 -0.32004,0.326 -14.05295,-2.13834 -30.51904,-5.47406 -16.46607,-3.33567 -31.49186,-5.72542 -33.38861,-5.3113 -2.22473,0.48572 9.60735,16.08437 33.3421,43.9554 20.23494,23.7613 36.3082,43.68682 35.71872,44.27632 -0.5895,0.58941 -21.40875,-14.39409 -46.26691,-33.2956 -24.85815,-18.90151 -45.1972,-33.02569 -45.1972,-31.3841 0,1.6416 4.99839,18.10812 11.11095,36.59308 6.11263,18.48495 10.41318,34.3144 9.55291,35.17456 -0.86033,0.86031 -14.55023,-10.46093 -30.42138,-25.15658 -15.87117,-14.69563 -29.24323,-25.56096 -29.71444,-24.14733 -0.47122,1.41367 5.03051,28.08941 12.22717,59.28004 7.19665,31.19058 13.02703,58.12428 12.95731,59.85209 -0.0693,1.72793 -12.96582,-22.34203 -28.66333,-53.4897 -15.69757,-31.14762 -28.88923,-55.56885 -29.31445,-54.27104 -0.42517,1.29783 -4.5068,18.7207 -9.06922,38.71851 -4.56242,19.99779 -8.67791,36.74125 -9.14361,37.207 -0.46575,0.46529 -7.55646,-16.76927 -15.75717,-38.29994 -9.06145,-23.79064 -15.58581,-37.92651 -16.63618,-36.03033 -0.95052,1.71605 -8.34046,27.01424 -16.41758,56.21511 -8.07714,29.20092 -15.16926,53.62332 -15.76181,54.27107 -0.59245,0.64799 -0.41663,-21.65324 0.39066,-49.55507 0.80742,-27.90192 2.02056,-55.24333 2.69753,-60.75904 0.67696,-5.51561 0.36914,-10.0244 -0.68368,-10.02262 -1.05289,0.002 -13.06429,14.54357 -26.69138,32.31894 -18.63934,24.31339 -24.95181,31.11826 -25.48678,27.4634 -0.39114,-2.67207 1.49435,-22.68102 4.18578,-44.46237 2.69141,-21.78135 4.47089,-40.02399 3.9579,-40.537 -0.51299,-0.51302 -17.71613,17.67886 -38.23019,40.42539 -20.51407,22.74653 -37.73942,40.91622 -38.28135,40.37424 -0.54197,-0.54199 12.39895,-22.56048 28.76102,-48.9272 16.36208,-26.36675 28.90811,-48.21774 27.88198,-48.55978 -1.02615,-0.34209 -21.21184,7.81892 -44.85768,18.13841 -23.64581,10.31951 -42.99269,18.26612 -42.99269,17.65938 0,-0.6067 12.37716,-16.20301 27.50527,-34.66297 34.08434,-41.59122 32.38016,-39.35957 31.04926,-40.6905 -0.61084,-0.61082 -27.47691,3.71064 -59.70329,9.59941 -32.22644,5.88878 -59.99916,10.39312 -61.71709,10.01331 -1.71797,-0.37978 22.82668,-9.70653 54.54544,-20.72892 31.71879,-11.02239 56.92339,-20.69787 56.00583,-21.501 -6.63693,-5.80924 -25.89633,-5.575 -144.42825,1.76267 -68.1354,4.21788 -129.989476,7.72515 -137.451927,7.79487 l -13.566604,0.12559 H 50 V 860.00089 C 50,909.86086 90.139123,950 139.99907,950 H 860.00089 C 909.86086,950 950,909.86086 950,860.00089 V 139.99907 C 950,90.139123 909.86086,50 860.00089,50 Z m 225.71621,433.12196 c -0.62153,5.41674 -0.9348,10.92097 -0.9348,16.49199 0,6.40368 0.36459,12.55201 1.04644,18.51049 a 135.15437,163.81542 0 0 1 -0.8232,-16.71524 134.99986,134.99986 0 0 1 -0.005,-0.8139 135.15437,163.81542 0 0 1 0,-0.59532 135.15437,163.81542 0 0 1 0.005,-1.50688 135.15437,163.81542 0 0 1 0.71156,-15.37114 z m 270.18791,18.66862 -0.60462,0.005 a 135.15437,163.81542 0 0 1 -0.005,0.25115 h 0.60462 c 0.002,-0.0855 0.004,-0.17057 0.005,-0.25579 z" />
  </g>
</svg>
