<?xml version="1.0" encoding="UTF-8" standalone="no"?>
<svg
   version="1.1"
   width="34"
   height="32"
   viewBox="0 0 34 32"
   id="svg6"
   >
  <path
     fill="#444444"
     d="m 19.971175,16.155923 a 3,3 0 1 1 -6,0 3,3 0 0 1 6,0 z"
     id="path2"
     style="stroke-width:1.25418" />
  <path
     fill="#444444"
     d="m 17.035021,27.477464 c 2.432524,2.36517 4.830075,3.764065 6.762623,3.764065 0.63339,0 1.233101,-0.133413 1.731781,-0.432621 1.731781,-0.999952 2.36517,-3.498534 1.765459,-7.063127 -0.09974,-0.633388 -0.23315,-1.265482 -0.40024,-1.932548 0.66577,-0.199472 1.265482,-0.40024 1.865193,-0.599712 3.365121,-1.299159 5.230315,-3.098294 5.230315,-5.063224 0,-1.998607 -1.865194,-3.797742 -5.230315,-5.063224 -0.599711,-0.233149 -1.199423,-0.432622 -1.865193,-0.599712 0.16709,-0.6657704 0.300503,-1.2991592 0.40024,-1.932548 0.566033,-3.6306517 -0.06606,-6.1629115 -1.799136,-7.1628627 -0.499976,-0.2992081 -1.099687,-0.43262138 -1.731781,-0.43262138 -1.898871,0 -4.331394,1.39889548 -6.762623,3.76406488 -2.398846,-2.3651694 -4.797693,-3.76406488 -6.728946,-3.76406488 -0.6333887,0 -1.2331004,0.13341328 -1.7317807,0.43262138 -1.7317807,0.9999512 -2.3651696,3.4985339 -1.7654578,7.0631267 0.099736,0.6333887 0.2331492,1.2654822 0.4002394,1.932548 -0.6657706,0.199472 -1.2654822,0.40024 -1.8651938,0.599712 -3.3651207,1.29916 -5.23031463,3.098294 -5.23031463,5.063224 0,1.998607 1.86519393,3.797742 5.23031463,5.063224 0.5997116,0.23315 1.1994232,0.432622 1.8651938,0.599712 a 21.866808,21.866808 0 0 0 -0.4002394,1.932548 c -0.5660347,3.564593 0.066059,6.096853 1.7654578,7.063127 0.4999756,0.300504 1.0996872,0.432621 1.7317807,0.432621 1.932548,0.06606 4.331395,-1.332837 6.762623,-3.664329 z m -1.866488,-4.497189 c 0.599711,0.03368 1.2331,0.03368 1.865193,0.03368 0.632094,0 1.265482,0 1.865194,-0.03368 a 31.763993,31.763993 0 0 1 -1.865194,2.231756 31.412974,31.412974 0 0 1 -1.865193,-2.231756 z m -4.130628,-3.43118 c 0.332885,0.566035 0.633388,1.099688 0.999951,1.632045 A 35.990471,35.990471 0 0 1 9.1066518,20.681164 c 0.3005035,-0.898919 0.6333888,-1.832812 1.0323332,-2.765409 0.266826,0.532357 0.566034,1.099687 0.89892,1.632045 z M 9.1053566,11.519694 c 0.9325974,-0.199472 1.8988714,-0.366562 2.9312044,-0.499975 -0.332886,0.533653 -0.665771,1.06601 -0.999952,1.632045 -0.33418,0.566033 -0.633388,1.099686 -0.898919,1.665721 A 22.160836,22.160836 0 0 1 9.1053566,11.518399 Z m 1.8328124,4.564544 c 0.432621,-0.89892 0.898919,-1.799135 1.432572,-2.698055 0.499975,-0.866538 1.06601,-1.73178 1.632045,-2.598318 a 45.71409,45.71409 0 0 1 6.064471,0 c 0.599712,0.866538 1.132069,1.73178 1.632044,2.598318 0.533653,0.89892 0.999951,1.799135 1.432573,2.698055 a 34.871355,34.871355 0 0 1 -1.432573,2.698055 c -0.499975,0.866538 -1.06601,1.73178 -1.632044,2.598318 a 45.71409,45.71409 0 0 1 -6.064471,0 37.167875,37.167875 0 0 1 -1.632045,-2.598318 35.109685,35.109685 0 0 1 -1.432572,-2.698055 z m 13.026566,-1.799135 -0.89892,-1.665721 c -0.332885,-0.566035 -0.633389,-1.099688 -0.999951,-1.632045 1.032333,0.133413 1.998607,0.300503 2.931203,0.499975 -0.299207,0.932598 -0.633388,1.865195 -1.032332,2.799086 z m 0,3.59827 c 0.400239,0.932597 0.733125,1.865194 1.032332,2.76541 -0.932596,0.199472 -1.89887,0.366562 -2.931203,0.499975 0.332885,-0.533653 0.66577,-1.06601 0.999951,-1.632045 0.300503,-0.499975 0.599712,-1.06601 0.89892,-1.632045 z m 0.765507,11.560316 c -0.266827,0.167091 -0.599712,0.23315 -0.966275,0.23315 -1.632045,0 -3.664328,-1.332837 -5.662936,-3.331443 a 34.801409,34.801409 0 0 0 2.831468,-3.498535 30.593066,30.593066 0 0 0 4.464808,-0.699448 c 0.16709,0.599712 0.266827,1.199423 0.366563,1.799135 0.466298,2.831468 0.09974,4.863753 -1.032333,5.497141 z m 1.733075,-17.557432 c 3.731683,1.06601 5.96344,2.698055 5.96344,4.197981 0,1.29916 -1.532309,2.598319 -4.230364,3.631947 -0.533653,0.199473 -1.132068,0.40024 -1.73178,0.566035 a 34.985339,34.985339 0 0 0 -1.632045,-4.197982 c 0.66577,-1.432573 1.2331,-2.831468 1.632045,-4.197981 z M 23.797644,2.4916375 c 0.366563,0 0.665771,0.066059 0.966275,0.2331493 1.099686,0.6333887 1.498631,2.6319959 1.032333,5.4971409 -0.09974,0.5660345 -0.23315,1.1657463 -0.366563,1.7991353 A 42.837287,42.837287 0 0 0 20.964881,9.321615 30.793833,30.793833 0 0 0 18.133413,5.8230811 C 20.132021,3.8568559 22.164304,2.4916375 23.796349,2.4916375 Z M 18.900216,9.1882018 C 18.300504,9.154525 17.667114,9.154525 17.035021,9.154525 c -0.632094,0 -1.265482,0 -1.865194,0.033677 0.599712,-0.7991838 1.2331,-1.5323087 1.865194,-2.2317563 0.633389,0.6994476 1.265483,1.4662496 1.865195,2.2317561 z M 9.3385058,2.7247868 C 9.6053322,2.5576965 9.9382174,2.4916375 10.30478,2.4916375 c 1.632045,0 3.664329,1.3328365 5.662936,3.3314436 A 34.656339,34.656339 0 0 0 13.136248,9.321615 30.593066,30.593066 0 0 0 8.6714399,10.021063 C 8.5043496,9.4213511 8.4046135,8.8216394 8.3048775,8.2219277 7.838579,5.3904597 8.2051414,3.3918526 9.3372105,2.7247868 Z M 7.6067251,20.28222 C 3.875042,19.21621 1.6432856,17.584165 1.6432856,16.084238 c 0,-1.29916 1.5323086,-2.598318 4.2303634,-3.630651 0.5336528,-0.199472 1.1320692,-0.40024 1.7317808,-0.566035 a 34.985339,34.985339 0 0 0 1.6320447,4.197981 C 8.5717039,17.518106 8.004374,18.950678 7.6054298,20.283515 Z m 0.6994476,3.664328 c 0.099737,-0.566034 0.2331493,-1.165745 0.3665625,-1.799135 1.3988958,0.300505 2.8988228,0.533653 4.4648078,0.699448 a 30.793833,30.793833 0 0 0 2.831468,3.498535 c -1.998607,1.96493 -4.030891,3.331443 -5.662936,3.331443 -0.3665622,0 -0.6657705,-0.06606 -0.966274,-0.23315 C 8.2064367,28.810301 7.8411696,26.778016 8.307468,23.946548 Z"
     id="path4"
     style="stroke-width:1.29527" />
</svg>
