<svg
   width="48"
   height="48"
   data-name="Layer 1"
   viewBox="0 0 48 48"
   version="1.1"
   id="svg4">
  <path
     id="rect835"
     style="stroke-width:0.453543"
     d="M 0,0 V 48 H 48 V 0 Z M 2.4000001,2.4000001 H 45.600001 V 45.600001 H 2.4000001 Z M 36.23672,21.836719 a 10.392,10.392 0 0 0 -0.297657,0.0023 c -4.248,0 -6.923437,2.413968 -6.923437,5.617968 -2e-6,2.808 2.064187,4.534219 5.292187,5.674219 2.484,0.852 3.46875,1.657126 3.46875,3.253124 0,1.596001 -1.32,2.662501 -3.6,2.662501 a 9.9480001,9.9480001 0 0 1 -4.729689,-1.2 l -0.789843,2.953126 a 11.304,11.304 0 0 0 5.289844,1.2 c 5.04,0 7.416845,-2.711251 7.464845,-5.831251 0,-2.808 -1.631063,-4.511813 -5.039063,-5.807813 -2.604,-0.995999 -3.733594,-1.703906 -3.733594,-3.203906 0,-1.2 0.961688,-2.4 3.229687,-2.4 a 8.4000001,8.4000001 0 0 1 3.91172,0.935156 l 0.85078,-2.880468 a 10.392,10.392 0 0 0 -4.39453,-0.975 z m -23.552346,0.316406 v 3.046876 h 5.568751 v 16.511718 h 3.600001 V 25.200001 h 5.627343 v -3.046876 z" />
</svg>
